<svg width="262" height="33" viewBox="0 0 262 33" fill="none" xmlns="http://www.w3.org/2000/svg">
<rect width="262" height="33" fill="#F5F5F5"/>
<g filter="url(#filter0_d_0_1)">
<path d="M12.75 13.3594H6.98438L6.95312 10.9375H12.1875C13.0521 10.9375 13.8073 10.7917 14.4531 10.5C15.099 10.2083 15.599 9.79167 15.9531 9.25C16.3177 8.69792 16.5 8.04167 16.5 7.28125C16.5 6.44792 16.3385 5.77083 16.0156 5.25C15.7031 4.71875 15.2188 4.33333 14.5625 4.09375C13.9167 3.84375 13.0938 3.71875 12.0938 3.71875H7.65625V24H4.64062V1.25H12.0938C13.2604 1.25 14.3021 1.36979 15.2188 1.60938C16.1354 1.83854 16.9115 2.20312 17.5469 2.70312C18.1927 3.19271 18.6823 3.81771 19.0156 4.57812C19.349 5.33854 19.5156 6.25 19.5156 7.3125C19.5156 8.25 19.276 9.09896 18.7969 9.85938C18.3177 10.6094 17.651 11.224 16.7969 11.7031C15.9531 12.1823 14.9635 12.4896 13.8281 12.625L12.75 13.3594ZM12.6094 24H5.79688L7.5 21.5469H12.6094C13.5677 21.5469 14.3802 21.3802 15.0469 21.0469C15.724 20.7135 16.2396 20.2448 16.5938 19.6406C16.9479 19.026 17.125 18.3021 17.125 17.4688C17.125 16.625 16.974 15.8958 16.6719 15.2812C16.3698 14.6667 15.8958 14.1927 15.25 13.8594C14.6042 13.526 13.7708 13.3594 12.75 13.3594H8.45312L8.48438 10.9375H14.3594L15 11.8125C16.0938 11.9062 17.0208 12.2188 17.7812 12.75C18.5417 13.2708 19.1198 13.9375 19.5156 14.75C19.9219 15.5625 20.125 16.4583 20.125 17.4375C20.125 18.8542 19.8125 20.0521 19.1875 21.0312C18.5729 22 17.7031 22.7396 16.5781 23.25C15.4531 23.75 14.1302 24 12.6094 24ZM31.8312 9.75V24H28.9406V7.09375H31.7531L31.8312 9.75ZM37.1125 7L37.0969 9.6875C36.8573 9.63542 36.6281 9.60417 36.4094 9.59375C36.201 9.57292 35.9615 9.5625 35.6906 9.5625C35.024 9.5625 34.4354 9.66667 33.925 9.875C33.4146 10.0833 32.9823 10.375 32.6281 10.75C32.274 11.125 31.9927 11.5729 31.7844 12.0938C31.5865 12.6042 31.4562 13.1667 31.3937 13.7812L30.5812 14.25C30.5812 13.2292 30.6802 12.2708 30.8781 11.375C31.0865 10.4792 31.4042 9.6875 31.8312 9C32.2583 8.30208 32.8 7.76042 33.4562 7.375C34.1229 6.97917 34.9146 6.78125 35.8312 6.78125C36.0396 6.78125 36.2792 6.80729 36.55 6.85938C36.8208 6.90104 37.0083 6.94792 37.1125 7ZM54.9281 20.0938V7.09375H57.8344V24H55.0687L54.9281 20.0938ZM55.475 16.5312L56.6781 16.5C56.6781 17.625 56.5583 18.6667 56.3187 19.625C56.0896 20.5729 55.7146 21.3958 55.1937 22.0938C54.6729 22.7917 53.9906 23.3385 53.1469 23.7344C52.3031 24.1198 51.2771 24.3125 50.0687 24.3125C49.2458 24.3125 48.4906 24.1927 47.8031 23.9531C47.126 23.7135 46.5427 23.3438 46.0531 22.8438C45.5635 22.3438 45.1833 21.6927 44.9125 20.8906C44.6521 20.0885 44.5219 19.125 44.5219 18V7.09375H47.4125V18.0312C47.4125 18.7917 47.4958 19.4219 47.6625 19.9219C47.8396 20.4115 48.074 20.8021 48.3656 21.0938C48.6677 21.375 49.001 21.5729 49.3656 21.6875C49.7406 21.8021 50.126 21.8594 50.5219 21.8594C51.751 21.8594 52.725 21.625 53.4437 21.1562C54.1625 20.6771 54.6781 20.0365 54.9906 19.2344C55.3135 18.4219 55.475 17.5208 55.475 16.5312ZM69.9313 10.7031V24H67.0406V7.09375H69.775L69.9313 10.7031ZM69.2438 14.9062L68.0406 14.8594C68.051 13.7031 68.2229 12.6354 68.5563 11.6562C68.8896 10.6667 69.3583 9.80729 69.9625 9.07812C70.5667 8.34896 71.2854 7.78646 72.1188 7.39062C72.9625 6.98438 73.8948 6.78125 74.9156 6.78125C75.749 6.78125 76.499 6.89583 77.1656 7.125C77.8323 7.34375 78.4 7.69792 78.8688 8.1875C79.3479 8.67708 79.7125 9.3125 79.9625 10.0938C80.2125 10.8646 80.3375 11.8073 80.3375 12.9219V24H77.4313V12.8906C77.4313 12.0052 77.301 11.2969 77.0406 10.7656C76.7802 10.224 76.4 9.83333 75.9 9.59375C75.4 9.34375 74.7854 9.21875 74.0563 9.21875C73.3375 9.21875 72.6813 9.36979 72.0875 9.67188C71.5042 9.97396 70.999 10.3906 70.5719 10.9219C70.1552 11.4531 69.8271 12.0625 69.5875 12.75C69.3583 13.4271 69.2438 14.1458 69.2438 14.9062ZM88.7625 15.7344V15.375C88.7625 14.1562 88.9396 13.026 89.2937 11.9844C89.6479 10.9323 90.1583 10.0208 90.825 9.25C91.4917 8.46875 92.299 7.86458 93.2469 7.4375C94.1948 7 95.2573 6.78125 96.4344 6.78125C97.6219 6.78125 98.6896 7 99.6375 7.4375C100.596 7.86458 101.408 8.46875 102.075 9.25C102.752 10.0208 103.268 10.9323 103.622 11.9844C103.976 13.026 104.153 14.1562 104.153 15.375V15.7344C104.153 16.9531 103.976 18.0833 103.622 19.125C103.268 20.1667 102.752 21.0781 102.075 21.8594C101.408 22.6302 100.601 23.2344 99.6531 23.6719C98.7156 24.099 97.6531 24.3125 96.4656 24.3125C95.2781 24.3125 94.2104 24.099 93.2625 23.6719C92.3146 23.2344 91.5021 22.6302 90.825 21.8594C90.1583 21.0781 89.6479 20.1667 89.2937 19.125C88.9396 18.0833 88.7625 16.9531 88.7625 15.7344ZM91.6531 15.375V15.7344C91.6531 16.5781 91.7521 17.375 91.95 18.125C92.1479 18.8646 92.4448 19.5208 92.8406 20.0938C93.2469 20.6667 93.7521 21.1198 94.3562 21.4531C94.9604 21.776 95.6635 21.9375 96.4656 21.9375C97.2573 21.9375 97.95 21.776 98.5437 21.4531C99.1479 21.1198 99.6479 20.6667 100.044 20.0938C100.44 19.5208 100.736 18.8646 100.934 18.125C101.143 17.375 101.247 16.5781 101.247 15.7344V15.375C101.247 14.5417 101.143 13.7552 100.934 13.0156C100.736 12.2656 100.434 11.6042 100.028 11.0312C99.6323 10.4479 99.1323 9.98958 98.5281 9.65625C97.9344 9.32292 97.2365 9.15625 96.4344 9.15625C95.6427 9.15625 94.9448 9.32292 94.3406 9.65625C93.7469 9.98958 93.2469 10.4479 92.8406 11.0312C92.4448 11.6042 92.1479 12.2656 91.95 13.0156C91.7521 13.7552 91.6531 14.5417 91.6531 15.375Z" fill="#18181B"/>
<path d="M139.488 16.7656H142.488C142.331 18.2031 141.92 19.4896 141.253 20.625C140.586 21.7604 139.644 22.6615 138.425 23.3281C137.206 23.9844 135.685 24.3125 133.863 24.3125C132.529 24.3125 131.316 24.0625 130.222 23.5625C129.139 23.0625 128.206 22.3542 127.425 21.4375C126.644 20.5104 126.04 19.401 125.613 18.1094C125.196 16.8073 124.988 15.3594 124.988 13.7656V11.5C124.988 9.90625 125.196 8.46354 125.613 7.17188C126.04 5.86979 126.649 4.75521 127.441 3.82812C128.243 2.90104 129.206 2.1875 130.331 1.6875C131.456 1.1875 132.722 0.9375 134.128 0.9375C135.847 0.9375 137.3 1.26042 138.488 1.90625C139.675 2.55208 140.597 3.44792 141.253 4.59375C141.92 5.72917 142.331 7.04688 142.488 8.54688H139.488C139.342 7.48438 139.071 6.57292 138.675 5.8125C138.279 5.04167 137.717 4.44792 136.988 4.03125C136.258 3.61458 135.305 3.40625 134.128 3.40625C133.118 3.40625 132.227 3.59896 131.456 3.98438C130.696 4.36979 130.055 4.91667 129.534 5.625C129.024 6.33333 128.639 7.18229 128.378 8.17188C128.118 9.16146 127.988 10.2604 127.988 11.4688V13.7656C127.988 14.8802 128.102 15.9271 128.331 16.9062C128.571 17.8854 128.93 18.7448 129.409 19.4844C129.889 20.224 130.498 20.8073 131.238 21.2344C131.977 21.651 132.852 21.8594 133.863 21.8594C135.144 21.8594 136.165 21.6562 136.925 21.25C137.685 20.8438 138.258 20.2604 138.644 19.5C139.04 18.7396 139.321 17.8281 139.488 16.7656ZM160.928 21.1094V12.4062C160.928 11.7396 160.793 11.1615 160.522 10.6719C160.261 10.1719 159.866 9.78646 159.334 9.51562C158.803 9.24479 158.147 9.10938 157.366 9.10938C156.636 9.10938 155.996 9.23438 155.444 9.48438C154.902 9.73438 154.475 10.0625 154.163 10.4688C153.86 10.875 153.709 11.3125 153.709 11.7812H150.819C150.819 11.1771 150.975 10.5781 151.288 9.98438C151.6 9.39062 152.048 8.85417 152.631 8.375C153.225 7.88542 153.933 7.5 154.756 7.21875C155.59 6.92708 156.517 6.78125 157.538 6.78125C158.767 6.78125 159.85 6.98958 160.788 7.40625C161.735 7.82292 162.475 8.45312 163.006 9.29688C163.548 10.1302 163.819 11.1771 163.819 12.4375V20.3125C163.819 20.875 163.866 21.474 163.959 22.1094C164.064 22.7448 164.215 23.2917 164.413 23.75V24H161.397C161.251 23.6667 161.136 23.224 161.053 22.6719C160.97 22.1094 160.928 21.5885 160.928 21.1094ZM161.428 13.75L161.459 15.7812H158.538C157.715 15.7812 156.98 15.849 156.334 15.9844C155.689 16.1094 155.147 16.3021 154.709 16.5625C154.272 16.8229 153.939 17.151 153.709 17.5469C153.48 17.9323 153.366 18.3854 153.366 18.9062C153.366 19.4375 153.485 19.9219 153.725 20.3594C153.965 20.7969 154.324 21.1458 154.803 21.4062C155.293 21.6562 155.892 21.7812 156.6 21.7812C157.485 21.7812 158.267 21.5938 158.944 21.2188C159.621 20.8438 160.157 20.3854 160.553 19.8438C160.959 19.3021 161.178 18.776 161.209 18.2656L162.444 19.6562C162.371 20.0938 162.173 20.5781 161.85 21.1094C161.527 21.6406 161.095 22.151 160.553 22.6406C160.022 23.1198 159.386 23.5208 158.647 23.8438C157.918 24.1562 157.095 24.3125 156.178 24.3125C155.032 24.3125 154.027 24.0885 153.163 23.6406C152.308 23.1927 151.642 22.5938 151.163 21.8438C150.694 21.0833 150.459 20.2344 150.459 19.2969C150.459 18.3906 150.636 17.5938 150.991 16.9062C151.345 16.2083 151.855 15.6302 152.522 15.1719C153.189 14.7031 153.991 14.349 154.928 14.1094C155.866 13.8698 156.913 13.75 158.069 13.75H161.428ZM183.822 20.7188V0H186.728V24H184.072L183.822 20.7188ZM172.447 15.7344V15.4062C172.447 14.1146 172.603 12.9427 172.916 11.8906C173.239 10.8281 173.692 9.91667 174.275 9.15625C174.869 8.39583 175.572 7.8125 176.384 7.40625C177.207 6.98958 178.124 6.78125 179.134 6.78125C180.197 6.78125 181.124 6.96875 181.916 7.34375C182.718 7.70833 183.395 8.24479 183.947 8.95312C184.509 9.65104 184.952 10.4948 185.275 11.4844C185.598 12.474 185.822 13.5938 185.947 14.8438V16.2812C185.832 17.5208 185.608 18.6354 185.275 19.625C184.952 20.6146 184.509 21.4583 183.947 22.1562C183.395 22.8542 182.718 23.3906 181.916 23.7656C181.114 24.1302 180.176 24.3125 179.103 24.3125C178.114 24.3125 177.207 24.099 176.384 23.6719C175.572 23.2448 174.869 22.6458 174.275 21.875C173.692 21.1042 173.239 20.1979 172.916 19.1562C172.603 18.1042 172.447 16.9635 172.447 15.7344ZM175.353 15.4062V15.7344C175.353 16.5781 175.436 17.3698 175.603 18.1094C175.78 18.849 176.051 19.5 176.416 20.0625C176.78 20.625 177.244 21.0677 177.806 21.3906C178.369 21.7031 179.041 21.8594 179.822 21.8594C180.78 21.8594 181.567 21.6562 182.181 21.25C182.806 20.8438 183.306 20.3073 183.681 19.6406C184.056 18.974 184.348 18.25 184.556 17.4688V13.7031C184.431 13.1302 184.249 12.5781 184.009 12.0469C183.78 11.5052 183.478 11.026 183.103 10.6094C182.739 10.1823 182.285 9.84375 181.744 9.59375C181.212 9.34375 180.582 9.21875 179.853 9.21875C179.061 9.21875 178.379 9.38542 177.806 9.71875C177.244 10.0417 176.78 10.4896 176.416 11.0625C176.051 11.625 175.78 12.2812 175.603 13.0312C175.436 13.7708 175.353 14.5625 175.353 15.4062ZM199.169 7.09375V24H196.262V7.09375H199.169ZM196.044 2.60938C196.044 2.14062 196.184 1.74479 196.466 1.42188C196.757 1.09896 197.184 0.9375 197.747 0.9375C198.299 0.9375 198.721 1.09896 199.012 1.42188C199.315 1.74479 199.466 2.14062 199.466 2.60938C199.466 3.05729 199.315 3.44271 199.012 3.76562C198.721 4.07812 198.299 4.23438 197.747 4.23438C197.184 4.23438 196.757 4.07812 196.466 3.76562C196.184 3.44271 196.044 3.05729 196.044 2.60938ZM211.75 0V24H208.844V0H211.75ZM224.081 0V24H221.191V0H224.081ZM223.394 14.9062L222.191 14.8594C222.201 13.7031 222.373 12.6354 222.706 11.6562C223.04 10.6667 223.508 9.80729 224.113 9.07812C224.717 8.34896 225.435 7.78646 226.269 7.39062C227.113 6.98438 228.045 6.78125 229.066 6.78125C229.899 6.78125 230.649 6.89583 231.316 7.125C231.982 7.34375 232.55 7.69792 233.019 8.1875C233.498 8.67708 233.863 9.3125 234.113 10.0938C234.363 10.8646 234.488 11.8073 234.488 12.9219V24H231.581V12.8906C231.581 12.0052 231.451 11.2969 231.191 10.7656C230.93 10.224 230.55 9.83333 230.05 9.59375C229.55 9.34375 228.935 9.21875 228.206 9.21875C227.488 9.21875 226.831 9.36979 226.238 9.67188C225.654 9.97396 225.149 10.3906 224.722 10.9219C224.305 11.4531 223.977 12.0625 223.738 12.75C223.508 13.4271 223.394 14.1458 223.394 14.9062ZM250.631 24.3125C249.454 24.3125 248.386 24.1146 247.428 23.7188C246.48 23.3125 245.663 22.7448 244.975 22.0156C244.298 21.2865 243.777 20.4219 243.413 19.4219C243.048 18.4219 242.866 17.3281 242.866 16.1406V15.4844C242.866 14.1094 243.069 12.8854 243.475 11.8125C243.881 10.7292 244.433 9.8125 245.131 9.0625C245.829 8.3125 246.621 7.74479 247.506 7.35938C248.392 6.97396 249.308 6.78125 250.256 6.78125C251.465 6.78125 252.506 6.98958 253.381 7.40625C254.267 7.82292 254.991 8.40625 255.553 9.15625C256.116 9.89583 256.532 10.7708 256.803 11.7812C257.074 12.7812 257.209 13.875 257.209 15.0625V16.3594H244.584V14H254.319V13.7812C254.277 13.0312 254.121 12.3021 253.85 11.5938C253.59 10.8854 253.173 10.3021 252.6 9.84375C252.027 9.38542 251.246 9.15625 250.256 9.15625C249.6 9.15625 248.996 9.29688 248.444 9.57812C247.892 9.84896 247.418 10.2552 247.022 10.7969C246.626 11.3385 246.319 12 246.1 12.7812C245.881 13.5625 245.772 14.4635 245.772 15.4844V16.1406C245.772 16.9427 245.881 17.6979 246.1 18.4062C246.329 19.1042 246.657 19.7188 247.084 20.25C247.522 20.7812 248.048 21.1979 248.663 21.5C249.288 21.8021 249.996 21.9531 250.788 21.9531C251.808 21.9531 252.673 21.7448 253.381 21.3281C254.09 20.9115 254.709 20.3542 255.241 19.6562L256.991 21.0469C256.626 21.599 256.163 22.125 255.6 22.625C255.038 23.125 254.345 23.5312 253.522 23.8438C252.709 24.1562 251.746 24.3125 250.631 24.3125Z" fill="#18181B"/>
<path d="M139.488 16.7656H142.488C142.331 18.2031 141.92 19.4896 141.253 20.625C140.586 21.7604 139.644 22.6615 138.425 23.3281C137.206 23.9844 135.685 24.3125 133.863 24.3125C132.529 24.3125 131.316 24.0625 130.222 23.5625C129.139 23.0625 128.206 22.3542 127.425 21.4375C126.644 20.5104 126.04 19.401 125.613 18.1094C125.196 16.8073 124.988 15.3594 124.988 13.7656V11.5C124.988 9.90625 125.196 8.46354 125.613 7.17188C126.04 5.86979 126.649 4.75521 127.441 3.82812C128.243 2.90104 129.206 2.1875 130.331 1.6875C131.456 1.1875 132.722 0.9375 134.128 0.9375C135.847 0.9375 137.3 1.26042 138.488 1.90625C139.675 2.55208 140.597 3.44792 141.253 4.59375C141.92 5.72917 142.331 7.04688 142.488 8.54688H139.488C139.342 7.48438 139.071 6.57292 138.675 5.8125C138.279 5.04167 137.717 4.44792 136.988 4.03125C136.258 3.61458 135.305 3.40625 134.128 3.40625C133.118 3.40625 132.227 3.59896 131.456 3.98438C130.696 4.36979 130.055 4.91667 129.534 5.625C129.024 6.33333 128.639 7.18229 128.378 8.17188C128.118 9.16146 127.988 10.2604 127.988 11.4688V13.7656C127.988 14.8802 128.102 15.9271 128.331 16.9062C128.571 17.8854 128.93 18.7448 129.409 19.4844C129.889 20.224 130.498 20.8073 131.238 21.2344C131.977 21.651 132.852 21.8594 133.863 21.8594C135.144 21.8594 136.165 21.6562 136.925 21.25C137.685 20.8438 138.258 20.2604 138.644 19.5C139.04 18.7396 139.321 17.8281 139.488 16.7656ZM160.928 21.1094V12.4062C160.928 11.7396 160.793 11.1615 160.522 10.6719C160.261 10.1719 159.866 9.78646 159.334 9.51562C158.803 9.24479 158.147 9.10938 157.366 9.10938C156.636 9.10938 155.996 9.23438 155.444 9.48438C154.902 9.73438 154.475 10.0625 154.163 10.4688C153.86 10.875 153.709 11.3125 153.709 11.7812H150.819C150.819 11.1771 150.975 10.5781 151.288 9.98438C151.6 9.39062 152.048 8.85417 152.631 8.375C153.225 7.88542 153.933 7.5 154.756 7.21875C155.59 6.92708 156.517 6.78125 157.538 6.78125C158.767 6.78125 159.85 6.98958 160.788 7.40625C161.735 7.82292 162.475 8.45312 163.006 9.29688C163.548 10.1302 163.819 11.1771 163.819 12.4375V20.3125C163.819 20.875 163.866 21.474 163.959 22.1094C164.064 22.7448 164.215 23.2917 164.413 23.75V24H161.397C161.251 23.6667 161.136 23.224 161.053 22.6719C160.97 22.1094 160.928 21.5885 160.928 21.1094ZM161.428 13.75L161.459 15.7812H158.538C157.715 15.7812 156.98 15.849 156.334 15.9844C155.689 16.1094 155.147 16.3021 154.709 16.5625C154.272 16.8229 153.939 17.151 153.709 17.5469C153.48 17.9323 153.366 18.3854 153.366 18.9062C153.366 19.4375 153.485 19.9219 153.725 20.3594C153.965 20.7969 154.324 21.1458 154.803 21.4062C155.293 21.6562 155.892 21.7812 156.6 21.7812C157.485 21.7812 158.267 21.5938 158.944 21.2188C159.621 20.8438 160.157 20.3854 160.553 19.8438C160.959 19.3021 161.178 18.776 161.209 18.2656L162.444 19.6562C162.371 20.0938 162.173 20.5781 161.85 21.1094C161.527 21.6406 161.095 22.151 160.553 22.6406C160.022 23.1198 159.386 23.5208 158.647 23.8438C157.918 24.1562 157.095 24.3125 156.178 24.3125C155.032 24.3125 154.027 24.0885 153.163 23.6406C152.308 23.1927 151.642 22.5938 151.163 21.8438C150.694 21.0833 150.459 20.2344 150.459 19.2969C150.459 18.3906 150.636 17.5938 150.991 16.9062C151.345 16.2083 151.855 15.6302 152.522 15.1719C153.189 14.7031 153.991 14.349 154.928 14.1094C155.866 13.8698 156.913 13.75 158.069 13.75H161.428ZM183.822 20.7188V0H186.728V24H184.072L183.822 20.7188ZM172.447 15.7344V15.4062C172.447 14.1146 172.603 12.9427 172.916 11.8906C173.239 10.8281 173.692 9.91667 174.275 9.15625C174.869 8.39583 175.572 7.8125 176.384 7.40625C177.207 6.98958 178.124 6.78125 179.134 6.78125C180.197 6.78125 181.124 6.96875 181.916 7.34375C182.718 7.70833 183.395 8.24479 183.947 8.95312C184.509 9.65104 184.952 10.4948 185.275 11.4844C185.598 12.474 185.822 13.5938 185.947 14.8438V16.2812C185.832 17.5208 185.608 18.6354 185.275 19.625C184.952 20.6146 184.509 21.4583 183.947 22.1562C183.395 22.8542 182.718 23.3906 181.916 23.7656C181.114 24.1302 180.176 24.3125 179.103 24.3125C178.114 24.3125 177.207 24.099 176.384 23.6719C175.572 23.2448 174.869 22.6458 174.275 21.875C173.692 21.1042 173.239 20.1979 172.916 19.1562C172.603 18.1042 172.447 16.9635 172.447 15.7344ZM175.353 15.4062V15.7344C175.353 16.5781 175.436 17.3698 175.603 18.1094C175.78 18.849 176.051 19.5 176.416 20.0625C176.78 20.625 177.244 21.0677 177.806 21.3906C178.369 21.7031 179.041 21.8594 179.822 21.8594C180.78 21.8594 181.567 21.6562 182.181 21.25C182.806 20.8438 183.306 20.3073 183.681 19.6406C184.056 18.974 184.348 18.25 184.556 17.4688V13.7031C184.431 13.1302 184.249 12.5781 184.009 12.0469C183.78 11.5052 183.478 11.026 183.103 10.6094C182.739 10.1823 182.285 9.84375 181.744 9.59375C181.212 9.34375 180.582 9.21875 179.853 9.21875C179.061 9.21875 178.379 9.38542 177.806 9.71875C177.244 10.0417 176.78 10.4896 176.416 11.0625C176.051 11.625 175.78 12.2812 175.603 13.0312C175.436 13.7708 175.353 14.5625 175.353 15.4062ZM199.169 7.09375V24H196.262V7.09375H199.169ZM196.044 2.60938C196.044 2.14062 196.184 1.74479 196.466 1.42188C196.757 1.09896 197.184 0.9375 197.747 0.9375C198.299 0.9375 198.721 1.09896 199.012 1.42188C199.315 1.74479 199.466 2.14062 199.466 2.60938C199.466 3.05729 199.315 3.44271 199.012 3.76562C198.721 4.07812 198.299 4.23438 197.747 4.23438C197.184 4.23438 196.757 4.07812 196.466 3.76562C196.184 3.44271 196.044 3.05729 196.044 2.60938ZM211.75 0V24H208.844V0H211.75ZM224.081 0V24H221.191V0H224.081ZM223.394 14.9062L222.191 14.8594C222.201 13.7031 222.373 12.6354 222.706 11.6562C223.04 10.6667 223.508 9.80729 224.113 9.07812C224.717 8.34896 225.435 7.78646 226.269 7.39062C227.113 6.98438 228.045 6.78125 229.066 6.78125C229.899 6.78125 230.649 6.89583 231.316 7.125C231.982 7.34375 232.55 7.69792 233.019 8.1875C233.498 8.67708 233.863 9.3125 234.113 10.0938C234.363 10.8646 234.488 11.8073 234.488 12.9219V24H231.581V12.8906C231.581 12.0052 231.451 11.2969 231.191 10.7656C230.93 10.224 230.55 9.83333 230.05 9.59375C229.55 9.34375 228.935 9.21875 228.206 9.21875C227.488 9.21875 226.831 9.36979 226.238 9.67188C225.654 9.97396 225.149 10.3906 224.722 10.9219C224.305 11.4531 223.977 12.0625 223.738 12.75C223.508 13.4271 223.394 14.1458 223.394 14.9062ZM250.631 24.3125C249.454 24.3125 248.386 24.1146 247.428 23.7188C246.48 23.3125 245.663 22.7448 244.975 22.0156C244.298 21.2865 243.777 20.4219 243.413 19.4219C243.048 18.4219 242.866 17.3281 242.866 16.1406V15.4844C242.866 14.1094 243.069 12.8854 243.475 11.8125C243.881 10.7292 244.433 9.8125 245.131 9.0625C245.829 8.3125 246.621 7.74479 247.506 7.35938C248.392 6.97396 249.308 6.78125 250.256 6.78125C251.465 6.78125 252.506 6.98958 253.381 7.40625C254.267 7.82292 254.991 8.40625 255.553 9.15625C256.116 9.89583 256.532 10.7708 256.803 11.7812C257.074 12.7812 257.209 13.875 257.209 15.0625V16.3594H244.584V14H254.319V13.7812C254.277 13.0312 254.121 12.3021 253.85 11.5938C253.59 10.8854 253.173 10.3021 252.6 9.84375C252.027 9.38542 251.246 9.15625 250.256 9.15625C249.6 9.15625 248.996 9.29688 248.444 9.57812C247.892 9.84896 247.418 10.2552 247.022 10.7969C246.626 11.3385 246.319 12 246.1 12.7812C245.881 13.5625 245.772 14.4635 245.772 15.4844V16.1406C245.772 16.9427 245.881 17.6979 246.1 18.4062C246.329 19.1042 246.657 19.7188 247.084 20.25C247.522 20.7812 248.048 21.1979 248.663 21.5C249.288 21.8021 249.996 21.9531 250.788 21.9531C251.808 21.9531 252.673 21.7448 253.381 21.3281C254.09 20.9115 254.709 20.3542 255.241 19.6562L256.991 21.0469C256.626 21.599 256.163 22.125 255.6 22.625C255.038 23.125 254.345 23.5312 253.522 23.8438C252.709 24.1562 251.746 24.3125 250.631 24.3125Z" fill="#4AA6E8"/>
</g>
<defs>
<filter id="filter0_d_0_1" x="0.640625" y="0" width="260.569" height="32.3125" filterUnits="userSpaceOnUse" color-interpolation-filters="sRGB">
<feFlood flood-opacity="0" result="BackgroundImageFix"/>
<feColorMatrix in="SourceAlpha" type="matrix" values="0 0 0 0 0 0 0 0 0 0 0 0 0 0 0 0 0 0 127 0" result="hardAlpha"/>
<feOffset dy="4"/>
<feGaussianBlur stdDeviation="2"/>
<feComposite in2="hardAlpha" operator="out"/>
<feColorMatrix type="matrix" values="0 0 0 0 0 0 0 0 0 0 0 0 0 0 0 0 0 0 0.25 0"/>
<feBlend mode="normal" in2="BackgroundImageFix" result="effect1_dropShadow_0_1"/>
<feBlend mode="normal" in="SourceGraphic" in2="effect1_dropShadow_0_1" result="shape"/>
</filter>
</defs>
</svg>
